<?xml version="1.0" ?><svg viewBox="0 0 32 32" xmlns="http://www.w3.org/2000/svg"><title/><g data-name="Layer 9" id="Layer_9"><path d="M30.75,14.93,27.54,8.18V4a3,3,0,0,0-3-3H9.16a3,3,0,0,0-3,3V8.18L2.95,14.93s0,.05,0,.08v0a1,1,0,0,0-.06.3s0,0,0,0V29.22a1,1,0,0,0,1,1h26a1,1,0,0,0,1-1V15.4s0,0,0,0A1,1,0,0,0,30.75,14.93Zm-2.47-.53h-.74V12.84ZM9.16,3H24.54a1,1,0,0,1,1,1V14.4H22.88a1,1,0,0,0-1,1v2.8H11.82V15.4a1,1,0,0,0-1-1H8.16V4A1,1,0,0,1,9.16,3Zm-3,11.38H5.41l.75-1.57ZM28.85,28.22h-24V16.4h5v1.8a2,2,0,0,0,2,2H21.88a2,2,0,0,0,2-2V16.4h5Z"/><path d="M11,11.16H22.69a1,1,0,1,0,0-2H11a1,1,0,1,0,0,2Z"/><path d="M11,7.32H22.69a1,1,0,0,0,0-2H11a1,1,0,0,0,0,2Z"/></g></svg>