<?xml version="1.0" ?><svg viewBox="0 0 32 32" xmlns="http://www.w3.org/2000/svg"><title/><g data-name="Layer 1" id="Layer_1"><path d="M23.69,3H8.31a3,3,0,0,0-3,3V26a3,3,0,0,0,3,3H23.69a3,3,0,0,0,3-3V6A3,3,0,0,0,23.69,3Zm1,23a1,1,0,0,1-1,1H8.31a1,1,0,0,1-1-1V6a1,1,0,0,1,1-1H23.69a1,1,0,0,1,1,1Z"/><path d="M10.15,9.31H16a1,1,0,1,0,0-2H10.15a1,1,0,1,0,0,2Z"/><path d="M21.85,11.16H10.15a1,1,0,0,0,0,2H21.85a1,1,0,1,0,0-2Z"/><path d="M21.85,15H10.15a1,1,0,0,0,0,2H21.85a1,1,0,1,0,0-2Z"/><path d="M21.85,18.84H10.15a1,1,0,0,0,0,2H21.85a1,1,0,1,0,0-2Z"/><path d="M21.85,22.69H10.15a1,1,0,1,0,0,2H21.85a1,1,0,1,0,0-2Z"/></g></svg>