<?xml version="1.0" ?><svg viewBox="0 0 32 32" xmlns="http://www.w3.org/2000/svg"><title/><g data-name="Layer 11" id="Layer_11"><path d="M30,15.54a1,1,0,0,0-.09-.43L25.27,5.38a1,1,0,0,0-.9-.57H17V2.6a1,1,0,1,0-2,0V4.81H7.63a1,1,0,0,0-.9.57L2.1,15.11a1,1,0,0,0-.09.43s0,0,0,0V29.4a1,1,0,0,0,1,1H29a1,1,0,0,0,1-1V15.57S30,15.55,30,15.54ZM8.26,6.81H15v5.32l-1.31-1.31a1,1,0,0,0-1.41,1.41l3,3,.06.06a1,1,0,0,0,.52.23h.2a1,1,0,0,0,.64-.29l3-3a1,1,0,0,0-1.41-1.41L17,12.13V6.81h6.74l3.69,7.76H22a1,1,0,0,0-1,1v2.8H11v-2.8a1,1,0,0,0-1-1H4.57ZM28,28.4H4V16.57H9v1.8a2,2,0,0,0,2,2H21a2,2,0,0,0,2-2v-1.8h5Z"/></g></svg>