<?xml version="1.0" encoding="UTF-8"?><svg xmlns="http://www.w3.org/2000/svg" xmlns:xlink="http://www.w3.org/1999/xlink" fill-opacity="1" color-rendering="auto" color-interpolation="auto" text-rendering="auto" stroke="black" stroke-linecap="square" width="623" stroke-miterlimit="10" shape-rendering="auto" stroke-opacity="1" fill="black" stroke-dasharray="none" font-weight="normal" stroke-width="1" height="343" font-family="'Dialog'" font-style="normal" stroke-linejoin="miter" font-size="12px" stroke-dashoffset="0" image-rendering="auto">
  <!--Generated by ySVG 2.5-->
  <defs id="genericDefs"/>
  <g>
    <defs id="defs1">
      <clipPath clipPathUnits="userSpaceOnUse" id="clipPath1">
        <path d="M0 0 L623 0 L623 343 L0 343 L0 0 Z"/>
      </clipPath>
      <clipPath clipPathUnits="userSpaceOnUse" id="clipPath2">
        <path d="M167 56 L790 56 L790 399 L167 399 L167 56 Z"/>
      </clipPath>
    </defs>
    <g fill="white" text-rendering="geometricPrecision" shape-rendering="geometricPrecision" transform="translate(-167,-56)" stroke="white">
      <rect x="167" width="623" height="343" y="56" clip-path="url(#clipPath2)" stroke="none"/>
    </g>
    <g fill="rgb(255,204,0)" text-rendering="geometricPrecision" shape-rendering="geometricPrecision" transform="matrix(1,0,0,1,-167,-56)" stroke="rgb(255,204,0)">
      <ellipse rx="36.5" ry="34" clip-path="url(#clipPath2)" cx="224.1071" cy="159" stroke="none"/>
    </g>
    <g text-rendering="geometricPrecision" stroke-miterlimit="1.45" shape-rendering="geometricPrecision" transform="matrix(1,0,0,1,-167,-56)" stroke-linecap="butt">
      <ellipse rx="36.5" fill="none" ry="34" clip-path="url(#clipPath2)" cx="224.1071" cy="159"/>
      <text x="205.6867" font-size="30px" y="169.3857" clip-path="url(#clipPath2)" font-family="sans-serif" stroke="none" xml:space="preserve">x1</text>
    </g>
    <g fill="rgb(255,204,0)" text-rendering="geometricPrecision" shape-rendering="geometricPrecision" transform="matrix(1,0,0,1,-167,-56)" stroke="rgb(255,204,0)">
      <ellipse rx="36.5" ry="34" clip-path="url(#clipPath2)" cx="219.1071" cy="277" stroke="none"/>
    </g>
    <g text-rendering="geometricPrecision" stroke-miterlimit="1.45" shape-rendering="geometricPrecision" transform="matrix(1,0,0,1,-167,-56)" stroke-linecap="butt">
      <ellipse rx="36.5" fill="none" ry="34" clip-path="url(#clipPath2)" cx="219.1071" cy="277"/>
      <text x="200.6867" font-size="30px" y="287.3857" clip-path="url(#clipPath2)" font-family="sans-serif" stroke="none" xml:space="preserve">x2</text>
    </g>
    <g fill="rgb(255,204,0)" text-rendering="geometricPrecision" shape-rendering="geometricPrecision" transform="matrix(1,0,0,1,-167,-56)" stroke="rgb(255,204,0)">
      <ellipse rx="36.5" ry="34" clip-path="url(#clipPath2)" cx="551.1071" cy="350" stroke="none"/>
    </g>
    <g text-rendering="geometricPrecision" stroke-miterlimit="1.45" shape-rendering="geometricPrecision" transform="matrix(1,0,0,1,-167,-56)" stroke-linecap="butt">
      <ellipse rx="36.5" fill="none" ry="34" clip-path="url(#clipPath2)" cx="551.1071" cy="350"/>
      <text x="522.5134" font-size="30px" y="360.3857" clip-path="url(#clipPath2)" font-family="sans-serif" stroke="none" xml:space="preserve">h23</text>
    </g>
    <g fill="rgb(255,204,0)" text-rendering="geometricPrecision" shape-rendering="geometricPrecision" transform="matrix(1,0,0,1,-167,-56)" stroke="rgb(255,204,0)">
      <ellipse rx="36.5" ry="34" clip-path="url(#clipPath2)" cx="551.1071" cy="223.9531" stroke="none"/>
    </g>
    <g text-rendering="geometricPrecision" stroke-miterlimit="1.45" shape-rendering="geometricPrecision" transform="matrix(1,0,0,1,-167,-56)" stroke-linecap="butt">
      <ellipse rx="36.5" fill="none" ry="34" clip-path="url(#clipPath2)" cx="551.1071" cy="223.9531"/>
      <text x="522.5134" font-size="30px" y="234.3388" clip-path="url(#clipPath2)" font-family="sans-serif" stroke="none" xml:space="preserve">h22</text>
    </g>
    <g fill="rgb(255,204,0)" text-rendering="geometricPrecision" shape-rendering="geometricPrecision" transform="matrix(1,0,0,1,-167,-56)" stroke="rgb(255,204,0)">
      <ellipse rx="36.5" ry="34" clip-path="url(#clipPath2)" cx="551.1071" cy="105" stroke="none"/>
    </g>
    <g text-rendering="geometricPrecision" stroke-miterlimit="1.45" shape-rendering="geometricPrecision" transform="matrix(1,0,0,1,-167,-56)" stroke-linecap="butt">
      <ellipse rx="36.5" fill="none" ry="34" clip-path="url(#clipPath2)" cx="551.1071" cy="105"/>
      <text x="522.5134" font-size="30px" y="115.3857" clip-path="url(#clipPath2)" font-family="sans-serif" stroke="none" xml:space="preserve">h21</text>
    </g>
    <g fill="rgb(255,204,0)" text-rendering="geometricPrecision" shape-rendering="geometricPrecision" transform="matrix(1,0,0,1,-167,-56)" stroke="rgb(255,204,0)">
      <ellipse rx="36.5" ry="34" clip-path="url(#clipPath2)" cx="381.1071" cy="140.5806" stroke="none"/>
    </g>
    <g text-rendering="geometricPrecision" stroke-miterlimit="1.45" shape-rendering="geometricPrecision" transform="matrix(1,0,0,1,-167,-56)" stroke-linecap="butt">
      <ellipse rx="36.5" fill="none" ry="34" clip-path="url(#clipPath2)" cx="381.1071" cy="140.5806"/>
      <text x="352.5134" font-size="30px" y="150.9664" clip-path="url(#clipPath2)" font-family="sans-serif" stroke="none" xml:space="preserve">h11</text>
    </g>
    <g fill="rgb(255,204,0)" text-rendering="geometricPrecision" shape-rendering="geometricPrecision" transform="matrix(1,0,0,1,-167,-56)" stroke="rgb(255,204,0)">
      <ellipse rx="36.5" ry="34" clip-path="url(#clipPath2)" cx="381.1071" cy="303.7214" stroke="none"/>
    </g>
    <g text-rendering="geometricPrecision" stroke-miterlimit="1.45" shape-rendering="geometricPrecision" transform="matrix(1,0,0,1,-167,-56)" stroke-linecap="butt">
      <ellipse rx="36.5" fill="none" ry="34" clip-path="url(#clipPath2)" cx="381.1071" cy="303.7214"/>
      <text x="352.5134" font-size="30px" y="314.1072" clip-path="url(#clipPath2)" font-family="sans-serif" stroke="none" xml:space="preserve">h12</text>
    </g>
    <g fill="rgb(255,204,0)" text-rendering="geometricPrecision" shape-rendering="geometricPrecision" transform="matrix(1,0,0,1,-167,-56)" stroke="rgb(255,204,0)">
      <ellipse rx="36.5" ry="34" clip-path="url(#clipPath2)" cx="737.8176" cy="223.9531" stroke="none"/>
    </g>
    <g text-rendering="geometricPrecision" stroke-miterlimit="1.45" shape-rendering="geometricPrecision" transform="matrix(1,0,0,1,-167,-56)" stroke-linecap="butt">
      <ellipse rx="36.5" fill="none" ry="34" clip-path="url(#clipPath2)" cx="737.8176" cy="223.9531"/>
      <text x="728.9407" font-size="30px" y="234.3388" clip-path="url(#clipPath2)" font-family="sans-serif" stroke="none" xml:space="preserve">y</text>
      <path fill="none" d="M260.1407 153.5819 L336.7117 142.0685" clip-path="url(#clipPath2)"/>
      <path d="M344.6228 140.879 L332.0128 137.7189 L335.7228 142.2172 L333.4997 147.6077 Z" clip-path="url(#clipPath2)" stroke="none"/>
      <text x="293.671" xml:space="preserve" y="143.127" clip-path="url(#clipPath2)" font-family="sans-serif" stroke="none">w11</text>
      <path fill="none" d="M246.1833 254.1993 L354.031 163.3813" clip-path="url(#clipPath2)"/>
      <path fill="none" d="M246.1833 254.1993 L347.9117 168.5343" clip-path="url(#clipPath2)"/>
      <path d="M354.031 163.3813 L341.6314 167.2863 L347.1468 169.1785 L348.0727 174.9354 Z" clip-path="url(#clipPath2)" stroke="none"/>
      <text x="312.5232" xml:space="preserve" y="174.1215" clip-path="url(#clipPath2)" font-family="sans-serif" stroke="none">w21</text>
      <path fill="none" d="M416.7193 133.1271 L515.495 112.4535" clip-path="url(#clipPath2)"/>
      <rect x="448.755" y="105.2896" clip-path="url(#clipPath2)" fill="white" width="26.3711" height="17.9688" stroke="none"/>
      <text x="450.755" xml:space="preserve" y="118.4283" clip-path="url(#clipPath2)" font-family="sans-serif" stroke="none">v11</text>
      <path fill="none" d="M413.4193 156.3935 L511.678 204.4793" clip-path="url(#clipPath2)"/>
      <path d="M518.8637 207.9959 L510.283 198.23 L510.7798 204.0398 L505.8874 207.2121 Z" clip-path="url(#clipPath2)" stroke="none"/>
      <text x="434.6188" xml:space="preserve" y="162.3741" clip-path="url(#clipPath2)" font-family="sans-serif" stroke="none">v12</text>
      <path fill="none" d="M403.1219 167.7001 L529.0924 322.8805" clip-path="url(#clipPath2)"/>
      <text x="511.1291" xml:space="preserve" y="297.5165" clip-path="url(#clipPath2)" font-family="sans-serif" stroke="none">v13</text>
      <path fill="none" d="M403.1219 167.7001 L524.0504 316.6694" clip-path="url(#clipPath2)"/>
      <path d="M529.0924 322.8805 L525.4114 310.4125 L523.4202 315.893 L517.6475 316.7151 Z" clip-path="url(#clipPath2)" stroke="none"/>
      <path fill="none" d="M416.7193 133.1271 L507.6647 114.0924" clip-path="url(#clipPath2)"/>
      <path d="M515.495 112.4535 L502.7252 110.0179 L506.6859 114.2973 L504.7738 119.8058 Z" clip-path="url(#clipPath2)" stroke="none"/>
      <path fill="none" d="M254.7918 284.1464 L336.7904 300.5679" clip-path="url(#clipPath2)"/>
      <path d="M344.6346 302.1389 L333.8501 294.8798 L335.8098 300.3716 L331.8864 304.6851 Z" clip-path="url(#clipPath2)" stroke="none"/>
      <text x="282.466" xml:space="preserve" y="310.2898" clip-path="url(#clipPath2)" font-family="sans-serif" stroke="none">w22</text>
      <path fill="none" d="M250.0515 182.9153 L349.2806 274.384" clip-path="url(#clipPath2)"/>
      <path d="M355.1628 279.8062 L349.7284 267.9965 L348.5454 273.7062 L342.9507 275.3492 Z" clip-path="url(#clipPath2)" stroke="none"/>
      <text x="316.3315" xml:space="preserve" y="240.8064" clip-path="url(#clipPath2)" font-family="sans-serif" stroke="none">w12</text>
      <path fill="none" d="M416.1417 313.2588 L516.0726 340.4626" clip-path="url(#clipPath2)"/>
      <path fill="none" d="M413.89 288.7727 L512.0732 244.0019" clip-path="url(#clipPath2)"/>
      <path d="M519.3522 240.6828 L506.3593 241.1121 L511.1633 244.4168 L510.5082 250.2108 Z" clip-path="url(#clipPath2)" stroke="none"/>
      <text x="448.2927" xml:space="preserve" y="288.3536" clip-path="url(#clipPath2)" font-family="sans-serif" stroke="none">v22</text>
      <path fill="none" d="M416.1417 313.2588 L508.3535 338.3613" clip-path="url(#clipPath2)"/>
      <path d="M516.0726 340.4626 L505.8073 332.4862 L507.3886 338.0986 L503.1806 342.135 Z" clip-path="url(#clipPath2)" stroke="none"/>
      <text x="446.5492" xml:space="preserve" y="343.3304" clip-path="url(#clipPath2)" font-family="sans-serif" stroke="none">v23</text>
      <path fill="none" d="M403.8541 277.1314 L523.1597 137.6691" clip-path="url(#clipPath2)"/>
      <path d="M528.3602 131.59 L516.7601 137.4583 L522.5097 138.429 L524.3589 143.9589 Z" clip-path="url(#clipPath2)" stroke="none"/>
      <text x="516.3365" xml:space="preserve" y="162.9472" clip-path="url(#clipPath2)" font-family="sans-serif" stroke="none">v21</text>
      <path fill="none" d="M581.2967 124.1093 L701.2274 200.0228" clip-path="url(#clipPath2)"/>
      <path d="M707.9871 204.3015 L700.5218 193.6587 L700.3824 199.488 L695.1734 202.1083 Z" clip-path="url(#clipPath2)" stroke="none"/>
      <text x="624.993" xml:space="preserve" y="143.9372" clip-path="url(#clipPath2)" font-family="sans-serif" stroke="none">w1</text>
      <path fill="none" d="M587.6071 223.9531 L693.3176 223.9531" clip-path="url(#clipPath2)"/>
      <path d="M701.3176 223.9531 L689.3176 218.9531 L692.3176 223.9531 L689.3176 228.9531 Z" clip-path="url(#clipPath2)" stroke="none"/>
      <text x="624.5973" xml:space="preserve" y="215.5342" clip-path="url(#clipPath2)" font-family="sans-serif" stroke="none">w2</text>
      <path fill="none" d="M580.6617 330.0479 L701.6326 248.3813" clip-path="url(#clipPath2)"/>
      <path d="M708.2631 243.9051 L695.5197 246.4754 L700.8038 248.9409 L701.1149 254.7635 Z" clip-path="url(#clipPath2)" stroke="none"/>
      <text x="624.0142" xml:space="preserve" y="283.0865" clip-path="url(#clipPath2)" font-family="sans-serif" stroke="none">w3</text>
    </g>
  </g>
</svg>
